

Release info:

General
Format                                   : Matroska
Format version                           : Version 2
File size                                : 1.36 GiB
Duration                                 : 1h 44mn
Overall bit rate                         : 1 876 Kbps
Movie name                               : End of Watch 2012

Video
ID                                       : 1
Format                                   : MPEG-4 Visual
Format profile                           : Advanced Simple@L5
Format settings, BVOP                    : Yes
Format settings, QPel                    : No
Format settings, GMC                     : No warppoints
Format settings, Matrix                  : Default (H.263)
Codec ID                                 : V_MS/VFW/FOURCC / XVID
Codec ID/Hint                            : XviD
Duration                                 : 1h 44mn
Bit rate                                 : 1 455 Kbps
Width                                    : 720 pixels
Height                                   : 400 pixels
Display aspect ratio                     : 16:9
Frame rate mode                          : Constant
Frame rate                               : 25.000 fps
Color space                              : YUV
Chroma subsampling                       : 4:2:0
Bit depth                                : 8 bits
Scan type                                : Progressive
Compression mode                         : Lossy
Bits/(Pixel*Frame)                       : 0.202
Stream size                              : 1.06 GiB (78%)
Title                                    : End of Watch 2012
Writing library                          : XviD 64
Language                                 : English
Default                                  : Yes
Forced                                   : No

Audio
ID                                       : 2
Format                                   : AC-3
Format/Info                              : Audio Coding 3
Mode extension                           : CM (complete main)
Format settings, Endianness              : Big
Muxing mode                              : Header stripping
Codec ID                                 : A_AC3
Duration                                 : 1h 44mn
Bit rate mode                            : Constant
Bit rate                                 : 384 Kbps
Channel(s)                               : 6 channels
Channel positions                        : Front: L C R, Side: L R, LFE
Sampling rate                            : 48.0 KHz
Bit depth                                : 16 bits
Compression mode                         : Lossy
Stream size                              : 286 MiB (20%)
Title                                    : End of Watch 2012
Language                                 : English
Default                                  : Yes
Forced                                   : No


IMDB Info:

Shot documentary-style, this film follows the daily grind of two young police officers in LA who are partners and friends, and what happens when they meet criminal forces greater than themselves.

Director: David Ayer
Writer: David Ayer
Stars: Jake Gyllenhaal, Michael Peña and Anna Kendrick

Genres: Crime | Drama | Thriller
 
http://www.imdb.com/title/tt1855199/

Screen Shot:
 
http://www.shotpix.com/images/91047140354875914336.png 
http://www.shotpix.com/images/54207303191611529725.png 
http://www.shotpix.com/images/92021053118574345926.png 
http://www.shotpix.com/images/46608661826514991847.png